<?xml version="1.0" standalone="no"?><!DOCTYPE svg PUBLIC "-//W3C//DTD SVG 1.1//EN" "http://www.w3.org/Graphics/SVG/1.1/DTD/svg11.dtd"><svg t="1501401407282" class="icon" style="" viewBox="0 0 1024 1024" version="1.1" xmlns="http://www.w3.org/2000/svg" p-id="1591" xmlns:xlink="http://www.w3.org/1999/xlink" width="48" height="48"><defs><style type="text/css"></style></defs><path d="M544.059897 959.266898h-64.949141c-228.633593 0-415.697442-187.063849-415.697442-415.697442v-64.949141c0-228.633593 187.063849-415.697442 415.697442-415.697442h64.949141c228.633593 0 415.697442 187.063849 415.697442 415.697442v64.949141C959.756315 772.203049 772.692466 959.266898 544.059897 959.266898z" fill="#FFFFFF" p-id="1592"></path><path d="M589.430304 275.712864c-4.975059-1.674053-10.010527-3.212952-15.114595-4.58803-20.295455-5.468572-41.601485-8.46446-63.627306-8.46446-9.413602 0-18.679764 0.602045-27.810773 1.647432-22.345273 2.561761-43.783384 8.095861-63.900683 16.237797l116.596989 116.598013 10.231686 10.23271 21.621386 21.621386c2.318076 1.673029 4.562433 3.441279 6.725903 5.300655 5.733758 4.925912 10.842946 10.533732 15.276369 16.674996V275.712864zM574.180556 355.619947l-0.249828-0.249828h0.249828L574.180556 355.619947z" fill="#E57259" p-id="1593"></path><path d="M730.576991 398.954869c-2.334459-4.700658-4.807142-9.350121-7.443646-13.932008-10.484586-18.217992-23.431616-35.401859-39.005935-50.977202-6.656278-6.656278-13.634057-12.784232-20.829923-18.49956-17.611851-13.989345-36.683763-25.234678-56.666934-33.70221l-0.001024 164.89366v14.470572 30.577311c0.455629 2.821828 0.792487 5.660038 1.008528 8.504392 0.571328 7.537844 0.219111 15.115619-0.989074 22.593053L730.576991 398.954869zM663.291343 444.67442v-0.35324l0.177133 0.177132L663.291343 444.67442z" fill="#5659A4" p-id="1594"></path><path d="M743.379653 588.809829c1.673029-4.974035 3.212952-10.010527 4.588031-15.114595 5.468572-20.295455 8.463436-41.602509 8.463436-63.627306 0-9.413602-0.601021-18.679764-1.647432-27.810773-2.560737-22.344249-8.095861-43.783384-16.237797-63.900683L621.947878 534.954485l-10.231686 10.231686-21.621387 21.621387c-1.674053 2.318076-3.442302 4.562433-5.300654 6.725902-4.925912 5.733758-10.532708 10.843969-16.674996 15.276369H743.379653zM663.472571 573.561105l0.249828-0.249828v0.249828H663.472571z" fill="#5C94CF" p-id="1595"></path><path d="M618.76769 731.183131c4.700658-2.334459 9.350121-4.807142 13.932008-7.443646 18.216968-10.484586 35.401859-23.431616 50.976178-39.006959 6.656278-6.656278 12.784232-13.634057 18.49956-20.829923 13.989345-17.611851 25.234678-36.683763 33.70221-56.666933l-164.89366 0h-14.470572-30.577311c-2.822852 0.455629-5.660038 0.792487-8.504391 1.007503-7.537844 0.571328-15.115619 0.220135-22.593054-0.98805L618.76769 731.183131zM573.047115 663.89646h0.354264l-0.177132 0.177132L573.047115 663.89646z" fill="#71C6D5" p-id="1596"></path><path d="M431.232854 743.60286c4.974035 1.673029 10.010527 3.212952 15.114595 4.588031 20.295455 5.468572 41.602509 8.46446 63.627306 8.46446 9.413602 0 18.679764-0.602045 27.810773-1.647432 22.344249-2.561761 43.783384-8.095861 63.900683-16.237797L485.088198 622.172109l-10.231686-10.23271-21.621386-21.621387c-2.318076-1.673029-4.562433-3.442302-6.725903-5.300654-5.733758-4.925912-10.843969-10.533732-15.276369-16.674996V743.60286zM446.481578 663.696802l0.249828 0.249828h-0.249828V663.696802z" fill="#78BE59" p-id="1597"></path><path d="M289.8947 619.182364c2.334459 4.700658 4.807142 9.350121 7.443646 13.932007 10.484586 18.216968 23.431616 35.401859 39.006959 50.976179 6.656278 6.656278 13.634057 12.784232 20.829923 18.49956 17.610828 13.988321 36.683763 25.234678 56.666934 33.702209l0.001024-164.89366v-14.470571V526.351801c-0.455629-2.822852-0.792487-5.660038-1.008527-8.504392-0.571328-7.537844-0.219111-15.115619 0.989073-22.593053L289.8947 619.182364zM357.180348 573.462812v0.354264l-0.177132-0.177132L357.180348 573.462812z" fill="#B2D361" p-id="1598"></path><path d="M277.252788 430.599069c-1.673029 4.975059-3.212952 10.010527-4.58803 15.114595-5.468572 20.295455-8.46446 41.602509-8.46446 63.627306 0 9.413602 0.602045 18.679764 1.647431 27.810773 2.561761 22.345273 8.095861 43.783384 16.237797 63.900683L398.684563 484.454413l10.23271-10.231686 21.621387-21.621386c1.673029-2.318076 3.442302-4.562433 5.300654-6.725903 4.925912-5.733758 10.533732-10.842946 16.674996-15.276369H277.252788zM357.158846 445.848817l-0.249828 0.249828v-0.250852L357.158846 445.848817z" fill="#E7D55C" p-id="1599"></path><path d="M400.690355 289.095045c-4.700658 2.334459-9.350121 4.807142-13.932008 7.443647-18.216968 10.484586-35.401859 23.431616-50.976179 39.006959-6.656278 6.656278-12.784232 13.634057-18.49956 20.829923-13.989345 17.610828-25.234678 36.683763-33.702209 56.666933l164.89366 0h14.470571 30.577312c2.822852-0.455629 5.660038-0.792487 8.504391-1.007503 7.537844-0.571328 15.115619-0.220135 22.593054 0.988049L400.690355 289.095045zM446.41093 356.380693h-0.35324l0.177132-0.177132L446.41093 356.380693z" fill="#E9AD5A" p-id="1600"></path></svg>